<mxfile host="app.diagrams.net" agent="Mozilla/5.0 (Macintosh; Intel Mac OS X 10_15_7) AppleWebKit/537.36 (KHTML, like Gecko) Chrome/141.0.0.0 Safari/537.36" version="28.2.7">
  <diagram name="Page-1" id="p1T0lbDfsKLX0R8OeuNq">
    <mxGraphModel dx="1336" dy="939" grid="1" gridSize="10" guides="1" tooltips="1" connect="1" arrows="1" fold="1" page="0" pageScale="1" pageWidth="827" pageHeight="1169" background="#ffffff" math="0" shadow="0">
      <root>
        <mxCell id="0" />
        <mxCell id="1" parent="0" />
        <mxCell id="7tp5D3jXa3FtQ6CsXDqI-12" value="" style="edgeStyle=orthogonalEdgeStyle;rounded=0;orthogonalLoop=1;jettySize=auto;html=1;" edge="1" parent="1" source="7tp5D3jXa3FtQ6CsXDqI-1" target="7tp5D3jXa3FtQ6CsXDqI-4">
          <mxGeometry relative="1" as="geometry" />
        </mxCell>
        <mxCell id="7tp5D3jXa3FtQ6CsXDqI-1" value="&lt;div style=&quot;&quot;&gt;&lt;span&gt;&lt;br&gt;&lt;/span&gt;&lt;/div&gt;&lt;div style=&quot;&quot;&gt;&lt;span&gt;&amp;nbsp;Field Environment&lt;/span&gt;&lt;/div&gt;&lt;div&gt;&lt;ul&gt;&lt;li style=&quot;&quot;&gt;&lt;span style=&quot;background-color: transparent; color: light-dark(rgb(0, 0, 0), rgb(255, 255, 255));&quot;&gt;Soil moisture&lt;/span&gt;&lt;/li&gt;&lt;li&gt;&lt;span style=&quot;background-color: transparent; color: light-dark(rgb(0, 0, 0), rgb(255, 255, 255));&quot;&gt;Temperature&lt;/span&gt;&lt;/li&gt;&lt;li&gt;&lt;span style=&quot;background-color: transparent; color: light-dark(rgb(0, 0, 0), rgb(255, 255, 255));&quot;&gt;Light intensity&lt;/span&gt;&lt;/li&gt;&lt;/ul&gt;&lt;/div&gt;" style="rounded=1;whiteSpace=wrap;html=1;align=left;fontSize=13;fillColor=#FDEBD0;" vertex="1" parent="1">
          <mxGeometry x="80" y="120" width="160" height="80" as="geometry" />
        </mxCell>
        <mxCell id="7tp5D3jXa3FtQ6CsXDqI-3" value="" style="sketch=0;outlineConnect=0;fontColor=#232F3E;gradientColor=none;fillColor=#232F3D;strokeColor=none;dashed=0;verticalLabelPosition=bottom;verticalAlign=top;align=center;html=1;fontSize=12;fontStyle=0;aspect=fixed;pointerEvents=1;shape=mxgraph.aws4.user;" vertex="1" parent="1">
          <mxGeometry x="900" y="160" width="80" height="80" as="geometry" />
        </mxCell>
        <mxCell id="7tp5D3jXa3FtQ6CsXDqI-13" value="" style="edgeStyle=orthogonalEdgeStyle;rounded=0;orthogonalLoop=1;jettySize=auto;html=1;" edge="1" parent="1" source="7tp5D3jXa3FtQ6CsXDqI-4" target="7tp5D3jXa3FtQ6CsXDqI-5">
          <mxGeometry relative="1" as="geometry" />
        </mxCell>
        <mxCell id="7tp5D3jXa3FtQ6CsXDqI-4" value="Sensor Data Acquisition (Arduino UNO R4 WiFi)&lt;div&gt;&lt;font style=&quot;font-size: 9px;&quot;&gt;Reads soil moisture (x2), DHT22, LDR&lt;/font&gt;&lt;/div&gt;" style="rounded=0;whiteSpace=wrap;html=1;fillColor=#ABEBC6;" vertex="1" parent="1">
          <mxGeometry x="340" y="120" width="160" height="80" as="geometry" />
        </mxCell>
        <mxCell id="7tp5D3jXa3FtQ6CsXDqI-16" value="" style="edgeStyle=orthogonalEdgeStyle;rounded=0;orthogonalLoop=1;jettySize=auto;html=1;dashed=1;dashPattern=8 8;fillColor=#f5f5f5;strokeColor=#666666;" edge="1" parent="1" source="7tp5D3jXa3FtQ6CsXDqI-5" target="7tp5D3jXa3FtQ6CsXDqI-6">
          <mxGeometry relative="1" as="geometry" />
        </mxCell>
        <mxCell id="7tp5D3jXa3FtQ6CsXDqI-18" value="" style="edgeStyle=orthogonalEdgeStyle;rounded=0;orthogonalLoop=1;jettySize=auto;html=1;" edge="1" parent="1" source="7tp5D3jXa3FtQ6CsXDqI-5" target="7tp5D3jXa3FtQ6CsXDqI-7">
          <mxGeometry relative="1" as="geometry" />
        </mxCell>
        <mxCell id="7tp5D3jXa3FtQ6CsXDqI-5" value="Preprocessing + TinyML Inference&amp;nbsp;&lt;div&gt;(Arduino UNO R4 WiFi)&lt;div&gt;&lt;font style=&quot;font-size: 9px;&quot;&gt;Normalize/filter → classify:&lt;/font&gt;&lt;/div&gt;&lt;div&gt;&lt;font style=&quot;font-size: 9px;&quot;&gt;&amp;nbsp;irrigate / not irrigate&lt;/font&gt;&lt;/div&gt;&lt;/div&gt;" style="rounded=0;whiteSpace=wrap;html=1;fillColor=#ABEBC6;" vertex="1" parent="1">
          <mxGeometry x="340" y="240" width="160" height="80" as="geometry" />
        </mxCell>
        <mxCell id="7tp5D3jXa3FtQ6CsXDqI-6" value="&lt;span style=&quot;font-size: 12px;&quot;&gt;Pump Control&lt;/span&gt;&lt;br&gt;&lt;div&gt;&lt;div&gt;&lt;font size=&quot;1&quot;&gt;Digital GPIO → driver (TIP120) → peristaltic pump&lt;/font&gt;&lt;/div&gt;&lt;/div&gt;&lt;div&gt;&lt;br&gt;&lt;/div&gt;" style="rounded=0;whiteSpace=wrap;html=1;fillColor=#A9DFBF;verticalAlign=top;dashed=1;dashPattern=8 8;strokeColor=#CCCCCC;" vertex="1" parent="1">
          <mxGeometry x="340" y="360" width="160" height="60" as="geometry" />
        </mxCell>
        <mxCell id="7tp5D3jXa3FtQ6CsXDqI-20" value="" style="edgeStyle=orthogonalEdgeStyle;rounded=0;orthogonalLoop=1;jettySize=auto;html=1;strokeColor=#666666;fillColor=#f5f5f5;" edge="1" parent="1" source="7tp5D3jXa3FtQ6CsXDqI-7" target="7tp5D3jXa3FtQ6CsXDqI-8">
          <mxGeometry relative="1" as="geometry" />
        </mxCell>
        <mxCell id="7tp5D3jXa3FtQ6CsXDqI-7" value="&lt;div&gt;&lt;span style=&quot;font-size: 12px;&quot;&gt;M2M Communication (UART)&lt;/span&gt;&lt;/div&gt;&lt;div&gt;&lt;font style=&quot;font-size: 9px;&quot;&gt;Arduino TX/RX ↔ ESP32 RX/TX&lt;/font&gt;&lt;/div&gt;&lt;div&gt;&lt;font style=&quot;font-size: 9px;&quot;&gt;Payload: telemetry (sensor + decision)&lt;/font&gt;&lt;/div&gt;" style="rounded=0;whiteSpace=wrap;html=1;fillColor=#76D7C4;" vertex="1" parent="1">
          <mxGeometry x="600" y="240" width="160" height="80" as="geometry" />
        </mxCell>
        <mxCell id="7tp5D3jXa3FtQ6CsXDqI-8" value="&lt;div&gt;&lt;span style=&quot;background-color: transparent; font-size: 12px;&quot;&gt;Wi-Fi Upload (ESP32)&lt;/span&gt;&lt;/div&gt;&lt;div&gt;&lt;div&gt;&lt;font style=&quot;font-size: 9px;&quot;&gt;HTTPS POST (JSON) → ThingSpeak Channel&lt;/font&gt;&lt;/div&gt;&lt;/div&gt;&lt;div&gt;&lt;br&gt;&lt;/div&gt;" style="rounded=0;whiteSpace=wrap;html=1;fillColor=#76D7C4;verticalAlign=bottom;" vertex="1" parent="1">
          <mxGeometry x="600" y="360" width="160" height="80" as="geometry" />
        </mxCell>
        <mxCell id="7tp5D3jXa3FtQ6CsXDqI-9" value="" style="html=1;verticalLabelPosition=bottom;align=center;labelBackgroundColor=#ffffff;verticalAlign=top;strokeWidth=2;strokeColor=#0080F0;shadow=0;dashed=0;shape=mxgraph.ios7.icons.cloud;fillColor=#AED6F1;" vertex="1" parent="1">
          <mxGeometry x="860" y="350" width="160" height="90" as="geometry" />
        </mxCell>
        <mxCell id="7tp5D3jXa3FtQ6CsXDqI-25" style="edgeStyle=orthogonalEdgeStyle;rounded=0;orthogonalLoop=1;jettySize=auto;html=1;exitX=0.497;exitY=0.071;exitDx=0;exitDy=0;exitPerimeter=0;" edge="1" parent="1" source="7tp5D3jXa3FtQ6CsXDqI-9" target="7tp5D3jXa3FtQ6CsXDqI-3">
          <mxGeometry relative="1" as="geometry">
            <mxPoint x="940" y="350" as="sourcePoint" />
          </mxGeometry>
        </mxCell>
        <mxCell id="7tp5D3jXa3FtQ6CsXDqI-10" value="ThingSpeak Cloud" style="text;html=1;whiteSpace=wrap;strokeColor=none;fillColor=none;align=center;verticalAlign=bottom;rounded=0;" vertex="1" parent="1">
          <mxGeometry x="885" y="380" width="110" height="30" as="geometry" />
        </mxCell>
        <mxCell id="7tp5D3jXa3FtQ6CsXDqI-11" value="&lt;div&gt;&lt;font style=&quot;font-size: 11px;&quot;&gt;(Channel + Dashboard)&lt;/font&gt;&lt;/div&gt;" style="text;html=1;whiteSpace=wrap;strokeColor=none;fillColor=none;align=center;verticalAlign=top;rounded=0;" vertex="1" parent="1">
          <mxGeometry x="875" y="410" width="130" height="30" as="geometry" />
        </mxCell>
        <mxCell id="7tp5D3jXa3FtQ6CsXDqI-14" value="&lt;font style=&quot;font-size: 8px;&quot;&gt;Physical variables sensed (soil, temp, light)&lt;/font&gt;" style="text;html=1;whiteSpace=wrap;strokeColor=none;fillColor=none;align=center;verticalAlign=middle;rounded=0;" vertex="1" parent="1">
          <mxGeometry x="240" y="130" width="100" height="30" as="geometry" />
        </mxCell>
        <mxCell id="7tp5D3jXa3FtQ6CsXDqI-15" value="&lt;font style=&quot;font-size: 8px;&quot;&gt;Raw sensor data&lt;/font&gt;" style="text;html=1;whiteSpace=wrap;strokeColor=none;fillColor=none;align=center;verticalAlign=middle;rounded=0;" vertex="1" parent="1">
          <mxGeometry x="420" y="200" width="100" height="40" as="geometry" />
        </mxCell>
        <mxCell id="7tp5D3jXa3FtQ6CsXDqI-17" value="&lt;span style=&quot;font-size: 8px;&quot;&gt;Control signal:&lt;br&gt;&lt;/span&gt;&lt;div&gt;&lt;span style=&quot;font-size: 8px;&quot;&gt;irrigate / not irrigate&lt;/span&gt;&lt;/div&gt;" style="text;html=1;whiteSpace=wrap;strokeColor=none;fillColor=none;align=center;verticalAlign=middle;rounded=0;" vertex="1" parent="1">
          <mxGeometry x="420" y="320" width="100" height="40" as="geometry" />
        </mxCell>
        <mxCell id="7tp5D3jXa3FtQ6CsXDqI-19" value="&lt;font style=&quot;font-size: 8px;&quot;&gt;Telemetry packet&lt;/font&gt;&lt;div&gt;&lt;font style=&quot;font-size: 8px;&quot;&gt;(sensor values + decision)&lt;/font&gt;&lt;/div&gt;" style="text;html=1;whiteSpace=wrap;strokeColor=none;fillColor=none;align=center;verticalAlign=middle;rounded=0;" vertex="1" parent="1">
          <mxGeometry x="500" y="240" width="100" height="40" as="geometry" />
        </mxCell>
        <mxCell id="7tp5D3jXa3FtQ6CsXDqI-21" value="&lt;span style=&quot;font-size: 8px;&quot;&gt;M2M playload&lt;/span&gt;&lt;div&gt;&lt;span style=&quot;font-size: 8px;&quot;&gt;(framed over UART)&lt;/span&gt;&lt;/div&gt;" style="text;html=1;whiteSpace=wrap;strokeColor=none;fillColor=none;align=center;verticalAlign=middle;rounded=0;" vertex="1" parent="1">
          <mxGeometry x="680" y="320" width="100" height="40" as="geometry" />
        </mxCell>
        <mxCell id="7tp5D3jXa3FtQ6CsXDqI-22" style="edgeStyle=orthogonalEdgeStyle;rounded=0;orthogonalLoop=1;jettySize=auto;html=1;entryX=0.029;entryY=0.554;entryDx=0;entryDy=0;entryPerimeter=0;" edge="1" parent="1" source="7tp5D3jXa3FtQ6CsXDqI-8" target="7tp5D3jXa3FtQ6CsXDqI-9">
          <mxGeometry relative="1" as="geometry" />
        </mxCell>
        <mxCell id="7tp5D3jXa3FtQ6CsXDqI-24" value="&lt;span style=&quot;font-size: 8px;&quot;&gt;HTTPS POST playload&lt;/span&gt;&lt;div&gt;&lt;span style=&quot;font-size: 8px;&quot;&gt;(JSON)&lt;/span&gt;&lt;/div&gt;" style="text;html=1;whiteSpace=wrap;strokeColor=none;fillColor=none;align=center;verticalAlign=middle;rounded=0;" vertex="1" parent="1">
          <mxGeometry x="760" y="360" width="100" height="40" as="geometry" />
        </mxCell>
        <mxCell id="7tp5D3jXa3FtQ6CsXDqI-26" value="&lt;span style=&quot;font-size: 8px;&quot;&gt;Graphs, logs, irrigation status&lt;/span&gt;" style="text;html=1;whiteSpace=wrap;strokeColor=none;fillColor=none;align=center;verticalAlign=middle;rounded=0;" vertex="1" parent="1">
          <mxGeometry x="940" y="280" width="100" height="40" as="geometry" />
        </mxCell>
        <mxCell id="7tp5D3jXa3FtQ6CsXDqI-27" value="User" style="text;html=1;whiteSpace=wrap;strokeColor=none;fillColor=none;align=center;verticalAlign=middle;rounded=0;" vertex="1" parent="1">
          <mxGeometry x="910" y="210" width="60" height="30" as="geometry" />
        </mxCell>
      </root>
    </mxGraphModel>
  </diagram>
</mxfile>
